<mxfile host="65bd71144e">
    <diagram id="o5rmMFve54lQymE0CqUv" name="Page-1">
        <mxGraphModel dx="1325" dy="759" grid="0" gridSize="10" guides="1" tooltips="1" connect="1" arrows="1" fold="1" page="1" pageScale="1" pageWidth="850" pageHeight="1100" background="#ffffff" math="0" shadow="0">
            <root>
                <mxCell id="0"/>
                <mxCell id="1" parent="0"/>
                <mxCell id="5" value="" style="swimlane;startSize=0;fontColor=#333333;fillColor=none;strokeColor=#004C99;rounded=0;strokeWidth=2;" vertex="1" parent="1">
                    <mxGeometry x="232" y="250" width="200" height="200" as="geometry"/>
                </mxCell>
                <mxCell id="11" value="&lt;ul style=&quot;font-size: 14px;&quot;&gt;&lt;li&gt;HTML - Page structure&amp;nbsp;&lt;/li&gt;&lt;li&gt;CSS - Page formating&amp;nbsp;&amp;nbsp;&lt;/li&gt;&lt;li&gt;JS - UI Updates&lt;/li&gt;&lt;/ul&gt;" style="text;strokeColor=none;fillColor=none;html=1;whiteSpace=wrap;verticalAlign=middle;overflow=hidden;rounded=1;strokeWidth=2;fontColor=#333333;" vertex="1" parent="5">
                    <mxGeometry x="-16" y="60" width="195" height="94" as="geometry"/>
                </mxCell>
                <mxCell id="23" value="&lt;font style=&quot;font-size: 20px;&quot;&gt;Front-end&lt;/font&gt;" style="text;strokeColor=none;fillColor=none;html=1;fontSize=24;fontStyle=1;verticalAlign=middle;align=center;rounded=1;strokeWidth=2;fontColor=#333333;" vertex="1" parent="5">
                    <mxGeometry x="29" y="14" width="100" height="40" as="geometry"/>
                </mxCell>
                <mxCell id="9" value="" style="verticalLabelPosition=bottom;shadow=0;dashed=0;align=center;html=1;verticalAlign=top;strokeWidth=1;shape=mxgraph.mockup.containers.userFemale;strokeColor=#666666;strokeColor2=#008cff;rounded=1;fontColor=#333333;fillColor=none;" vertex="1" parent="1">
                    <mxGeometry x="38" y="293" width="100" height="100" as="geometry"/>
                </mxCell>
                <mxCell id="12" value="" style="swimlane;startSize=0;fontColor=#333333;fillColor=none;strokeColor=#004C99;rounded=0;strokeWidth=2;" vertex="1" parent="1">
                    <mxGeometry x="528" y="248" width="237" height="200" as="geometry"/>
                </mxCell>
                <mxCell id="14" style="edgeStyle=none;html=1;exitX=1;exitY=1;exitDx=0;exitDy=0;entryX=1;entryY=0.75;entryDx=0;entryDy=0;fontColor=#333333;" edge="1" parent="12">
                    <mxGeometry relative="1" as="geometry">
                        <mxPoint x="167.5" y="52" as="sourcePoint"/>
                        <mxPoint x="167.5" y="41.25" as="targetPoint"/>
                    </mxGeometry>
                </mxCell>
                <mxCell id="16" value="&lt;ul style=&quot;font-size: 14px;&quot;&gt;&lt;li&gt;Flask - process/route requests&amp;nbsp;&amp;nbsp;&lt;/li&gt;&lt;li&gt;Ollama - Generates Responses&lt;/li&gt;&lt;/ul&gt;" style="text;strokeColor=none;fillColor=none;html=1;whiteSpace=wrap;verticalAlign=middle;overflow=hidden;rounded=1;strokeWidth=2;fontColor=#333333;" vertex="1" parent="12">
                    <mxGeometry x="-23" y="56" width="260" height="94" as="geometry"/>
                </mxCell>
                <mxCell id="24" value="&lt;font style=&quot;font-size: 20px;&quot;&gt;Back-end&lt;/font&gt;" style="text;strokeColor=none;fillColor=none;html=1;fontSize=24;fontStyle=1;verticalAlign=middle;align=center;rounded=1;strokeWidth=2;fontColor=#333333;" vertex="1" parent="12">
                    <mxGeometry x="57" y="16" width="100" height="40" as="geometry"/>
                </mxCell>
                <mxCell id="18" style="edgeStyle=none;html=1;exitX=0;exitY=0;exitDx=46.75;exitDy=40;exitPerimeter=0;entryX=0;entryY=0;entryDx=46.75;entryDy=24;entryPerimeter=0;fontSize=14;fontColor=#333333;" edge="1" parent="1">
                    <mxGeometry relative="1" as="geometry">
                        <mxPoint x="191.75" y="353" as="sourcePoint"/>
                        <mxPoint x="191.75" y="337" as="targetPoint"/>
                    </mxGeometry>
                </mxCell>
                <mxCell id="21" value="" style="html=1;shadow=0;dashed=0;align=center;verticalAlign=middle;shape=mxgraph.arrows2.arrow;dy=0.61;dx=17.25;notch=0;rounded=1;strokeColor=#004C99;strokeWidth=2;fontSize=14;fontColor=#333333;fillColor=none;" vertex="1" parent="1">
                    <mxGeometry x="446" y="279" width="71" height="31" as="geometry"/>
                </mxCell>
                <mxCell id="22" value="" style="html=1;shadow=0;dashed=0;align=center;verticalAlign=middle;shape=mxgraph.arrows2.arrow;dy=0.61;dx=17.25;notch=0;rounded=1;strokeColor=#004C99;strokeWidth=2;fontSize=14;fontColor=#333333;fillColor=none;rotation=-180;" vertex="1" parent="1">
                    <mxGeometry x="445" y="377" width="71" height="31" as="geometry"/>
                </mxCell>
                <mxCell id="6" style="edgeStyle=none;html=1;exitX=1;exitY=1;exitDx=0;exitDy=0;entryX=1;entryY=0.75;entryDx=0;entryDy=0;fontColor=#333333;" edge="1" parent="1">
                    <mxGeometry relative="1" as="geometry">
                        <mxPoint x="560" y="554" as="sourcePoint"/>
                        <mxPoint x="560" y="543.25" as="targetPoint"/>
                    </mxGeometry>
                </mxCell>
                <mxCell id="25" value="" style="html=1;shadow=0;dashed=0;align=center;verticalAlign=middle;shape=mxgraph.arrows2.arrow;dy=0.61;dx=17.25;notch=0;rounded=1;strokeColor=#004C99;strokeWidth=2;fontSize=14;fontColor=#333333;fillColor=none;" vertex="1" parent="1">
                    <mxGeometry x="150" y="327.5" width="72" height="43.5" as="geometry"/>
                </mxCell>
                <mxCell id="26" value="User" style="text;html=1;strokeColor=none;fillColor=none;align=center;verticalAlign=middle;whiteSpace=wrap;rounded=0;strokeWidth=2;fontSize=20;fontColor=#333333;" vertex="1" parent="1">
                    <mxGeometry x="58" y="399" width="60" height="30" as="geometry"/>
                </mxCell>
                <mxCell id="27" value="&lt;font style=&quot;font-size: 15px;&quot;&gt;prompt&lt;/font&gt;" style="text;html=1;strokeColor=none;fillColor=none;align=center;verticalAlign=middle;whiteSpace=wrap;rounded=0;strokeWidth=2;fontSize=20;fontColor=#333333;" vertex="1" parent="1">
                    <mxGeometry x="156" y="373" width="60" height="30" as="geometry"/>
                </mxCell>
                <mxCell id="28" value="&lt;font style=&quot;font-size: 15px;&quot;&gt;request&lt;/font&gt;" style="text;html=1;strokeColor=none;fillColor=none;align=center;verticalAlign=middle;whiteSpace=wrap;rounded=0;strokeWidth=2;fontSize=20;fontColor=#333333;" vertex="1" parent="1">
                    <mxGeometry x="446" y="250" width="60" height="30" as="geometry"/>
                </mxCell>
                <mxCell id="29" value="&lt;font style=&quot;font-size: 15px;&quot;&gt;response&lt;/font&gt;" style="text;html=1;strokeColor=none;fillColor=none;align=center;verticalAlign=middle;whiteSpace=wrap;rounded=0;strokeWidth=2;fontSize=20;fontColor=#333333;" vertex="1" parent="1">
                    <mxGeometry x="450.5" y="408" width="60" height="30" as="geometry"/>
                </mxCell>
            </root>
        </mxGraphModel>
    </diagram>
</mxfile>